<svg xmlns="http://www.w3.org/2000/svg" fill="#ffc107" viewBox="0 0 24 24"><path d="M7.75 2C4.298 2 2 4.298 2 7.75v8.5C2 19.702 4.298 22 7.75 22h8.5C19.702 22 22 19.702 22 16.25v-8.5C22 4.298 19.702 2 16.25 2h-8.5Zm0 1.5h8.5c2.336 0 3.75 1.414 3.75 3.75v8.5c0 2.336-1.414 3.75-3.75 3.75h-8.5c-2.336 0-3.75-1.414-3.75-3.75v-8.5c0-2.336 1.414-3.75 3.75-3.75Zm8.75 2.75a1.25 1.25 0 1 0 0 2.5 1.25 1.25 0 0 0 0-2.5Zm-4.5 1.25a4.75 4.75 0 1 0 0 9.5 4.75 4.75 0 0 0 0-9.5Zm0 1.5a3.25 3.25 0 1 1 0 6.5 3.25 3.25 0 0 1 0-6.5Z"></path></svg>
